<?xml version="1.0" encoding="utf-8"?>
<!-- Generator: Adobe Illustrator 28.3.0, SVG Export Plug-In . SVG Version: 6.00 Build 0)  -->
<svg version="1.1" id="Layer_1" xmlns="http://www.w3.org/2000/svg"
    xmlns:xlink="http://www.w3.org/1999/xlink" x="0px" y="0px"
    viewBox="0 0 1080 1080" style="enable-background:new 0 0 1080 1080;" xml:space="preserve">
<style type="text/css">
	.st0{fill:none;}
	.st1{fill:#1C565B;}
	.st2{fill:#FFFFFF;}
</style>
<g>
	<path class="st0" d="M438.84,443.09"/>
	<circle class="st1" cx="540" cy="540" r="478.05"/>
	<g>
		<g>
			<g>
				<path class="st2" d="M847.64,418.32c-38.76,0-77.52,0-116.28,0c-25.28,31.77-50.56,63.53-75.84,95.3
					c0.01-9.28-1.19-36.64-20.97-60.8c-33.22-40.57-87.68-34.03-91.26-33.54c-36.4,0.27-72.8,0.54-109.2,0.81
					c0.14-50.47,0.28-100.95,0.42-151.42c-36.57,0.17-73.14,0.34-109.71,0.51c0,168.02,0,336.04,0,504.05c36.11,0,72.22,0,108.33,0
					c0-80.03,0-160.05,0-240.08c45.95-31.93,101.32-25.63,126.33,4.99c15.62,19.12,22.98,52.14,8.17,80.3
					c-14.74,28.03-43.41,35.94-48.52,37.26c0,38.96,0,77.92,0,116.89c16.54-1.75,44.74-6.86,75.13-23.98
					c31.81-17.92,51.28-40.68,61.28-54.25c10.02,26.29,20.04,52.58,30.07,78.87c32.98,0,65.97,0,98.95,0
					c-27.19-60.67-54.39-121.34-81.58-182.01C751.19,533.58,799.41,475.95,847.64,418.32z"/>
			</g>
		</g>
		<path class="st2" d="M655.53,347.41c0-26.29,0-52.58,0-78.87c-47.21,0-94.42,0-141.62,0c-0.05,35.01-0.11,70.02-0.16,105.03
			c7.12-0.32,17.1-0.72,29.04-1.01c68.91-1.71,80.34,2.94,87.97,8.09c7.19,4.85,18.22,15.03,24.77,37.66
			C655.53,394.68,655.53,371.05,655.53,347.41z"/>
	</g>
	<g>
		<path class="st2" d="M366.53,844.9v11.55h-26.15v22.94h-16.01v-57.34h16.01v22.86H366.53z M376.95,822.04h15.92v57.34h-15.92
			V822.04z"/>
		<path class="st2" d="M444.25,819.83h18.71v38.15c0,4.54-1.25,8.46-3.75,11.76c-2.5,3.31-5.98,5.86-10.45,7.65
			c-4.46,1.79-9.65,2.69-15.55,2.69c-5.94,0-11.15-0.9-15.61-2.69c-4.46-1.79-7.94-4.34-10.41-7.65c-2.48-3.31-3.72-7.23-3.72-11.76
			v-38.15h18.71v36.76c0,1.84,0.47,3.48,1.41,4.93c0.94,1.45,2.25,2.58,3.92,3.39c1.67,0.81,3.57,1.22,5.7,1.22
			c2.15,0,4.06-0.41,5.72-1.22c1.66-0.81,2.96-1.94,3.9-3.39c0.94-1.44,1.41-3.09,1.41-4.93V819.83z"/>
		<path class="st2" d="M473.56,822.04h16.01v57.34h-16.01V822.04z M532.02,867.84v11.55h-29.84v-11.55H532.02z"/>
		<path class="st2" d="M528.61,819.83h20.86l13.46,24.19h0.54l13.46-24.19h20.86l-25.3,40.83v18.73h-18.57v-18.73L528.61,819.83z"/>
		<path class="st2" d="M626.97,821.22h16.2l32.02,58.16h-16.96l-23.21-41.78l-23.21,41.78h-16.96L626.97,821.22z"/>
		<path class="st2" d="M734.13,879.39h-20.56l20.09-22.04l10.04,10.81L734.13,879.39z M766.91,879.39l-50.97-57.34h18.95
			l15.63,17.04l15.63-17.04h18.85l-24.63,27.77l27.1,29.57H766.91z"/>
	</g>
</g>
</svg>