<?xml version="1.0" encoding="UTF-8"?>
<svg id="Layer_2" data-name="Layer 2" xmlns="http://www.w3.org/2000/svg" viewBox="0 0 669.98 741.57">
  <defs>
    <style>
      .cls-1 {
        fill: #cd9dd7;
      }

      .cls-2 {
        fill: #4c0182;
      }

      .cls-3 {
        fill: #cd9dd6;
      }

      .cls-4 {
        fill: #121212;
      }

      .cls-5 {
        fill: #4c0183;
      }
    </style>
  </defs>
  <g id="Layer_2-2" data-name="Layer 2">
    <g>
      <g>
        <path class="cls-5" d="m478.11,138.07c.18-46.02.36-92.04.54-138.07-9.5,5.34-31.61,19.49-46.38,47.46-11.81,22.36-13.41,43.13-13.48,53.93,6.62.36,18.26,1.87,30.74,8.63,16.58,8.98,25.16,22.07,28.58,28.04Z"/>
        <path class="cls-3" d="m115.15,297.71c.54,45.84,1.08,91.69,1.62,137.53,9.19-4.51,26.06-14.35,39.91-33.44,19.59-27,20.61-55.22,20.49-65.26-6.85-.43-20.88-2.22-35.6-11.33-15.11-9.35-23.04-21.52-26.43-27.51Z"/>
        <path class="cls-1" d="m219.78,215.73v-70.65h195.79c5.65.54,24.22,3.01,40.43,18.34,15.98,15.11,19.59,33.18,20.49,38.83v263.74c-8.35-4.06-28.09-15.03-42.61-38.3-13.82-22.16-15.47-43.53-15.64-52.85v-131.06c.17-1.77,1.49-18.24-11.33-29.66-10.14-9.04-22.23-8.75-24.81-8.63h-142.93c-2.47.4-5.8,1.21-9.43,2.97-4.74,2.28-8,5.21-9.98,7.28Z"/>
        <path class="cls-2" d="m115.15,16.72c6.93,2.62,24.18,10.18,37.75,28.58,13.67,18.53,15.75,37.38,16.18,44.76v131.07c-.03,2.71.19,12.59,7.55,21.02,10.8,12.37,27.22,10.43,28.58,10.25h123.51c2.13.15,7.76.24,13.48-3.24,4.11-2.5,6.43-5.73,7.55-7.55v65.82h-176.91c-3.64-.07-27.95-.92-44.21-21.05-11.04-13.66-12.23-28.61-12.4-33.98-.36-78.56-.72-157.12-1.08-235.69Z"/>
      </g>
      <circle class="cls-4" cx="202.25" cy="485.71" r="7.79"/>
      <circle class="cls-4" cx="259.28" cy="485.71" r="7.79"/>
      <path class="cls-4" d="m0,515.6h54.47v40.99h50.7v-37.48c.16-.27,2.1-3.5,5.93-3.78,2.82-.2,5.55,1.27,7.01,3.78v110.83c-1.57,2.35-4.25,3.69-7.01,3.51-3.71-.25-5.71-3.16-5.94-3.51v-66.61h-51.5v69.84H.27l-.27-117.58Z"/>
      <polygon class="cls-4" points="298.31 515.31 354.34 515.31 354.34 625.75 407.33 625.75 407.33 633.84 298.31 633.84 298.31 515.31"/>
      <path class="cls-4" d="m403.15,515.31h66.34l31.01,40.74,28.85-40.74c2.27-1.94,5.54-1.96,7.62-.18,1.73,1.47,2.38,3.97,1.62,6.27-27.44,37.48-54.88,74.97-82.31,112.45h-9.44c-1.45-1.09-2.1-2.97-1.62-4.72.48-1.74,1.98-3.03,3.78-3.24l19.69-25.89-65.53-84.69Z"/>
      <path class="cls-4" d="m605.4,513.03c-.85-1.52-2.46-2.46-4.18-2.42-2.52.05-3.83,2.16-3.91,2.29-23.37,38.47-46.74,76.94-70.11,115.42-1.25,2.15-1.26,4.73,0,6.47,1.74,2.41,5.82,3.03,8.89.67,3.74-6.42,7.47-12.85,11.2-19.27,17.48.04,34.96.08,52.44.13,3.15,5.7,6.3,11.41,9.44,17.12h60.81v-5.53c-21.53-38.29-43.05-76.58-64.58-114.88Zm-54.14,95.6l22.99-38.49,20.9,38.49h-43.89Z"/>
      <path class="cls-4" d="m80.2,713.63c-1.9-.64-4.1.04-5.47,1.72-8.88,11.32-19.69,17.16-27.2,14.26-1.32-.51-2.79-1.39-4.24-2.94v-22.14h39.53c.04-.51.07-1.01.11-1.52.7-21.14-15.87-38.62-35.6-39.23-21.41-.67-38.2,18.76-37.64,39.23.53,18.85,15.67,34.98,34.51,36.81,16.14,1.57,31.95-7.66,39.03-23.06-.09-.26-.85-2.39-3.03-3.13Zm-37.02-36.71c.39-2.42,2.12-4.43,4.45-5.16,2.38-.73,4.99-.02,6.68,1.83-.04,7.95-.07,15.91-.1,23.86-3.68.07-7.35.14-11.03.2v-20.73Z"/>
      <path class="cls-4" d="m303.97,713.63c-1.9-.64-4.09.04-5.46,1.72-8.89,11.32-19.69,17.16-27.2,14.26-1.33-.51-2.8-1.39-4.25-2.94v-22.14h39.54c.03-.51.07-1.01.1-1.52.7-21.14-15.86-38.62-35.6-39.23-21.41-.67-38.2,18.76-37.63,39.23.52,18.85,15.66,34.98,34.5,36.81,16.15,1.57,31.95-7.66,39.03-23.06-.09-.26-.84-2.39-3.03-3.13Zm-37.01-36.71c.38-2.42,2.11-4.43,4.45-5.16,2.38-.73,4.99-.02,6.67,1.83-.03,7.95-.07,15.91-.1,23.86-3.67.07-7.35.14-11.02.2v-20.73Z"/>
      <path class="cls-4" d="m113.87,666.2h41.06c7.01,10.25,14.02,20.49,21.03,30.74,5.93-9.51,11.87-19.01,17.8-28.52.78-2.54,3.59-3.67,5.59-2.72,1.97.93,2.88,3.75,1.49,5.96-12.47,21.71-24.94,43.42-37.42,65.12-.25.18-.95.64-1.96.67-1.07.04-1.84-.44-2.09-.61-15.17-23.55-30.34-47.1-45.51-70.65Z"/>
      <path class="cls-4" d="m487.21,659.73c.07,2.22.13,4.45.2,6.67h-9.1v7.08h8.9v43.28c-.19,1.69-.44,6.01,2.02,10.51,3.58,6.54,10.12,8.38,11.33,8.7,7.82.07,15.64.13,23.46.2,1.92-.53,6.28-2.01,10.11-6.07,3.46-3.66,4.76-7.58,5.26-9.51,1.24-2.93.19-6.07-2.02-7.28-2.29-1.26-4.86.1-5.06.2-.3,1.5-1.25,5.15-4.45,8.29-2.17,2.13-4.48,3.15-5.87,3.64v-51.98h14.36v-6.89h-14.17v-22.03c-11.66,5.06-23.32,10.11-34.98,15.17Z"/>
      <path class="cls-4" d="m385.08,736.18v-55.21c1.06-1.31,3.07-3.45,6.27-5.06,3.73-1.87,7.16-2.05,8.9-2.02v62.7h37.01v-57.64c-.18-1.49-.92-5.96-4.65-9.91-3.85-4.07-8.45-5.02-9.91-5.26h-22.45c-1.98.27-5.96,1.1-9.91,4.04-3.14,2.34-4.93,5.02-5.87,6.67-.07-2.83-.13-5.66-.2-8.49h-32.97v70.38c11.26-.07,22.52-.13,33.78-.2Z"/>
      <path class="cls-4" d="m149.12,515.06c0,38.35.41,69,.54,89.53.02,3.9.22,11.88,5.39,18.88,9.91,13.39,27.85,11.42,28.58,11.33h50.16c2.44-.19,14.54-1.4,23.73-11.87,9.53-10.86,8.8-23.58,8.63-25.89v-79.28h-10.23v79.28c.1,2.9.06,12.19-6.51,20.38-10.91,13.59-29.32,11.04-30.18,10.9h-14.12l.09-113.26h-56.09Z"/>
      <path class="cls-4" d="m573.2,680.56c.79-2.35,2.46-6.29,6.04-9.91,4.2-4.26,8.75-5.79,12.13-6.88,3.2-1.03,13.72-4.42,25.28.4,2.74,1.14,7.66,3.64,12.34,8.9.62,2.07.18,4.27-1.21,5.66-1.91,1.91-5.37,2.06-7.89,0-4.11-2.49-8.22-4.99-12.34-7.48-2.53-1.22-5.18-.14-5.87,1.62-.46,1.19-.02,2.7,1.01,3.84,6.08,6.28,11,11.21,14.16,14.36,9.31,9.27,12.11,11.74,13.96,16.99.76,2.17,2.92,8.59.4,15.57-2.66,7.38-8.95,10.92-12.54,12.94-10.46,5.89-25.78,7.44-37.42-.2-3.8-2.5-6.33-5.4-7.89-7.48-.05-.21-.81-3.57,1.01-5.26,1.9-1.77,6.25-1.39,9.1,2.22,6.41,8.12,11.78,6.18,14.56,5.26,1.37-.45,3.18-1.7,4.65-5.46-9.64-11.12-19.28-22.25-28.92-33.37-.64-1.03-2.16-3.82-1.82-7.48.17-1.84.76-3.3,1.25-4.25Z"/>
    </g>
  </g>
</svg>